<svg className="sidebar--svg"
width="76" height="62" viewBox="0 0 76 62" fill="none" xmlns="http://www.w3.org/2000/svg">
<path d="M60.8 61.7H14.6C8.7 61.7 3.9 56.9 3.9 51V45C3.9 44.2 4.6 43.5 5.4 43.5H5.5C6.1 43.5 6.7 43.9 6.9 44.5C7.3 45.8 10.1 47.3 13.9 47.3C17.2 47.3 19.5 46.2 20.5 45.2C21.4 44.1 22.8 43.5 24.4 43.5H27.3C28.8 43.5 30.2 44.1 31.2 45.2C32.1 46.3 34.5 47.3 37.8 47.3C41 47.3 43.4 46.2 44.4 45.2C45.3 44.1 46.7 43.5 48.3 43.5H50.7C52.2 43.5 53.6 44.1 54.6 45.2C55.5 46.3 57.9 47.3 61.2 47.3C64.9 47.3 67.7 45.9 68.1 44.5C68.3 43.9 68.9 43.5 69.5 43.5H70C70.8 43.5 71.5 44.2 71.5 45V51C71.5 56.9 66.7 61.7 60.8 61.7ZM6.9 48.6V51C6.9 55.2 10.3 58.7 14.6 58.7H60.8C65 58.7 68.5 55.3 68.5 51V48.2C66.7 49.5 64 50.2 61 50.2C57.3 50.2 53.9 49 52.2 47C51.9 46.6 51.3 46.4 50.6 46.4H48.2C47.6 46.4 47 46.6 46.6 47C44.9 49 41.5 50.2 37.8 50.2C34.1 50.2 30.7 49 29 47C28.7 46.6 28.1 46.4 27.4 46.4H24.5C23.9 46.4 23.3 46.6 22.9 47C21.2 49 17.8 50.2 14.1 50.2C11.2 50.3 8.8 49.7 6.9 48.6ZM68.3 38.5H7.9C4 38.5 0.799998 35.2 0.799998 31.1C0.799998 29.1 1.5 27.3 2.8 25.9C4.2 24.5 5.9 23.7 7.8 23.7H48.8C49.3 23.7 49.8 24 50.1 24.4L52.2 27.9L56.8 24C57.1 23.8 57.4 23.6 57.8 23.6H68.3C72.2 23.6 75.4 26.9 75.4 31C75.4 33 74.7 34.8 73.4 36.2C72 37.7 70.2 38.5 68.3 38.5ZM7.9 26.6C6.8 26.6 5.8 27 5 27.9C4.2 28.7 3.8 29.9 3.8 31.1C3.8 33.5 5.6 35.5 7.9 35.5H68.3C69.4 35.5 70.4 35.1 71.2 34.2C72 33.4 72.4 32.2 72.4 31C72.4 28.6 70.6 26.6 68.3 26.6H58.4L52.9 31.3C52.6 31.6 52.1 31.7 51.7 31.6C51.3 31.5 50.9 31.3 50.7 30.9L48 26.6H7.9ZM51.9 31.7C51.8 31.7 51.7 31.7 51.7 31.7C51.3 31.6 50.9 31.4 50.7 31L48 26.6H8.1C7.3 26.6 6.6 25.9 6.6 25.1V18.3C6.6 17.5 7.3 16.8 8.1 16.8H67.4C68.2 16.8 68.9 17.5 68.9 18.3V25.1C68.9 25.9 68.2 26.6 67.4 26.6H58.4L52.9 31.3C52.6 31.6 52.3 31.7 51.9 31.7ZM9.6 23.6H48.8C49.3 23.6 49.8 23.9 50.1 24.3L52.2 27.8L56.8 23.9C57.1 23.7 57.4 23.5 57.8 23.5H65.8V19.7H9.6V23.6ZM61 50.3C56.8 50.3 53.2 48.8 51.7 46.5H47C45.5 48.8 41.9 50.3 37.7 50.3C33.5 50.3 29.9 48.8 28.4 46.5H23.2C21.7 48.8 18.1 50.3 13.9 50.3C9.5 50.3 5.8 48.7 4.5 46.3C2.2 45.6 0.599998 43.5 0.599998 41.1C0.599998 38.6 2.4 36.4 4.8 35.8C5 35.7 5.2 35.7 5.4 35.7H70C73 35.7 75.4 38.1 75.4 41.1C75.4 44 73.1 46.4 70.3 46.5C68.8 48.8 65.2 50.3 61 50.3ZM46.1 43.5H52.6C53.2 43.5 53.8 43.9 54 44.5C54.4 45.8 57.2 47.3 61 47.3C64.7 47.3 67.5 45.9 67.9 44.5C68.1 43.9 68.7 43.5 69.3 43.5H70C71.3 43.5 72.4 42.4 72.4 41.1C72.4 39.8 71.3 38.7 70 38.7H5.8C5.7 38.7 5.7 38.7 5.6 38.7C4.4 38.9 3.5 39.9 3.5 41.1C3.5 42.3 4.4 43.3 5.6 43.5C5.8 43.5 5.9 43.6 6 43.6C6.4 43.8 6.8 44.1 6.9 44.5C7.3 45.8 10.1 47.3 13.9 47.3C17.6 47.3 20.4 45.9 20.8 44.5C21 43.9 21.6 43.5 22.2 43.5H29.2C29.8 43.5 30.4 43.9 30.6 44.5C31 45.8 33.8 47.3 37.5 47.3C41.2 47.3 44 45.9 44.4 44.5C44.9 43.9 45.4 43.5 46.1 43.5ZM70 19.9H5.4C4.6 19.9 3.9 19.2 3.9 18.4V16.6C3.9 7.59999 11.2 0.299988 20.2 0.299988H55.1C64.1 0.299988 71.4 7.59999 71.4 16.6V18.4C71.5 19.2 70.8 19.9 70 19.9ZM6.9 16.9H68.5V16.6C68.5 9.29999 62.5 3.29999 55.2 3.29999H20.3C13 3.29999 7 9.29999 7 16.6V16.9H6.9ZM19.6 12.4L23.4 8.59999C24 7.99999 24 7.09999 23.4 6.49999C22.8 5.89999 21.9 5.89999 21.3 6.49999L17.5 10.3C16.9 10.9 16.9 11.8 17.5 12.4C17.8 12.7 18.2 12.8 18.6 12.8C18.9 12.8 19.3 12.6 19.6 12.4ZM36.9 12.4L40.7 8.59999C41.3 7.99999 41.3 7.09999 40.7 6.49999C40.1 5.89999 39.2 5.89999 38.6 6.49999L34.8 10.3C34.2 10.9 34.2 11.8 34.8 12.4C35.1 12.7 35.5 12.8 35.9 12.8C36.2 12.8 36.6 12.6 36.9 12.4ZM53.6 12.4L57.4 8.59999C58 7.99999 58 7.09999 57.4 6.49999C56.8 5.89999 55.9 5.89999 55.3 6.49999L51.5 10.3C50.9 10.9 50.9 11.8 51.5 12.4C51.8 12.7 52.2 12.8 52.6 12.8C52.9 12.8 53.3 12.6 53.6 12.4Z" fill="black"/>
</svg>
