<svg width="48" height="48" viewBox="0 0 48 48" fill="none" xmlns="http://www.w3.org/2000/svg">
<path d="M37 18H30.87L26.87 10.05C26.7398 9.83365 26.5326 9.67456 26.29 9.60466C26.0474 9.53476 25.7873 9.55923 25.5619 9.67317C25.3366 9.7871 25.1627 9.98205 25.0752 10.2189C24.9876 10.4557 24.9929 10.7169 25.09 10.95L28.63 18H19.37L22.89 11C22.9609 10.8822 23.0067 10.751 23.0246 10.6146C23.0426 10.4783 23.0321 10.3397 22.9941 10.2076C22.956 10.0755 22.8911 9.95259 22.8034 9.84667C22.7157 9.74075 22.6071 9.65406 22.4844 9.59201C22.3617 9.52996 22.2275 9.49389 22.0902 9.48605C21.9529 9.47821 21.8155 9.49877 21.6865 9.54644C21.5575 9.59412 21.4397 9.66788 21.3405 9.76313C21.2413 9.85837 21.1629 9.97305 21.11 10.1L17.11 18.1H11C10.2044 18.1 9.44129 18.4161 8.87868 18.9787C8.31607 19.5413 8 20.3044 8 21.1V21.55C8.02586 22.2088 8.30589 22.832 8.78133 23.2888C9.25678 23.7456 9.89067 24.0005 10.55 24L14.11 35.21C14.3668 36.0192 14.8744 36.7257 15.5593 37.2272C16.2443 37.7288 17.071 37.9994 17.92 38H30.08C30.929 37.9994 31.7557 37.7288 32.4407 37.2272C33.1256 36.7257 33.6332 36.0192 33.89 35.21L37.45 24C38.1263 24 38.7749 23.7313 39.2531 23.2531C39.7313 22.7749 40 22.1263 40 21.45V21C40 20.2044 39.6839 19.4413 39.1213 18.8787C38.5587 18.3161 37.7956 18 37 18ZM38 21.45C38.0014 21.5226 37.9881 21.5947 37.9609 21.6621C37.9337 21.7294 37.8933 21.7906 37.8419 21.8419C37.7906 21.8933 37.7294 21.9337 37.6621 21.9609C37.5947 21.9881 37.5226 22.0014 37.45 22C37.027 22.001 36.6152 22.1361 36.2738 22.3858C35.9324 22.6356 35.679 22.9872 35.55 23.39L32 34.61C31.87 35.0161 31.6135 35.37 31.2681 35.6201C30.9227 35.8701 30.5064 36.0033 30.08 36H17.92C17.4936 36.0033 17.0773 35.8701 16.7319 35.6201C16.3865 35.37 16.13 35.0161 16 34.61L12.45 23.39C12.321 22.9872 12.0676 22.6356 11.7262 22.3858C11.3848 22.1361 10.973 22.001 10.55 22C10.4774 22.0014 10.4053 21.9881 10.3379 21.9609C10.2706 21.9337 10.2094 21.8933 10.1581 21.8419C10.1067 21.7906 10.0663 21.7294 10.0391 21.6621C10.0119 21.5947 9.99864 21.5226 10 21.45V21C10 20.7348 10.1054 20.4804 10.2929 20.2929C10.4804 20.1054 10.7348 20 11 20H16.13L15.37 21.52C15.1544 21.7684 15.0278 22.0816 15.01 22.41C15.0138 22.4264 15.0138 22.4436 15.01 22.46V22.46C15.0104 22.7029 15.0697 22.9421 15.183 23.157C15.2962 23.372 15.4599 23.5562 15.6601 23.6938C15.8603 23.8314 16.0909 23.9184 16.3321 23.9472C16.5733 23.976 16.8179 23.9458 17.0449 23.8592C17.2718 23.7726 17.4744 23.6321 17.635 23.4499C17.7957 23.2677 17.9097 23.0492 17.9673 22.8132C18.0248 22.5772 18.0242 22.3307 17.9655 22.095C17.9067 21.8593 17.7916 21.6414 17.63 21.46L18.37 20H29.63L30.38 21.51C30.2184 21.6914 30.1033 21.9093 30.0445 22.145C29.9858 22.3807 29.9852 22.6272 30.0427 22.8632C30.1003 23.0992 30.2143 23.3177 30.375 23.4999C30.5356 23.6821 30.7382 23.8226 30.9651 23.9092C31.1921 23.9958 31.4367 24.026 31.6779 23.9972C31.9191 23.9684 32.1497 23.8814 32.3499 23.7438C32.5501 23.6062 32.7138 23.422 32.827 23.207C32.9403 22.9921 32.9996 22.7529 33 22.51C32.9962 22.4936 32.9962 22.4764 33 22.46C32.9822 22.1316 32.8556 21.8184 32.64 21.57L31.87 20H37C37.2652 20 37.5196 20.1054 37.7071 20.2929C37.8946 20.4804 38 20.7348 38 21V21.45Z" fill="white"/>
<path d="M24 25C23.7348 25 23.4804 25.1054 23.2929 25.2929C23.1054 25.4804 23 25.7348 23 26V32C23 32.2652 23.1054 32.5196 23.2929 32.7071C23.4804 32.8946 23.7348 33 24 33C24.2652 33 24.5196 32.8946 24.7071 32.7071C24.8946 32.5196 25 32.2652 25 32V26C25 25.7348 24.8946 25.4804 24.7071 25.2929C24.5196 25.1054 24.2652 25 24 25Z" fill="white"/>
<path d="M19 25.68C18.9151 25.4281 18.7336 25.2201 18.4955 25.102C18.2573 24.9838 17.9819 24.9651 17.73 25.05C17.478 25.1349 17.2701 25.3164 17.152 25.5545C17.0338 25.7927 17.0151 26.0681 17.1 26.32L19.1 32.32C19.1642 32.5108 19.2844 32.6777 19.445 32.799C19.6055 32.9203 19.799 32.9904 20 33C20.1062 33.0137 20.2138 33.0137 20.32 33C20.4553 32.9642 20.5816 32.9005 20.6907 32.8128C20.7998 32.7252 20.8893 32.6156 20.9534 32.4912C21.0175 32.3667 21.0548 32.2303 21.0628 32.0905C21.0708 31.9508 21.0494 31.8109 21 31.68L19 25.68Z" fill="white"/>
<path d="M30.32 25.05C30.1953 25.0076 30.0634 24.9904 29.9319 24.9991C29.8005 25.0079 29.6721 25.0425 29.5541 25.1011C29.4361 25.1596 29.3308 25.2409 29.2443 25.3402C29.1578 25.4396 29.0917 25.5551 29.05 25.68L27.05 31.68C26.9998 31.8077 26.9763 31.9443 26.9811 32.0814C26.986 32.2185 27.019 32.3532 27.078 32.477C27.1371 32.6008 27.2211 32.7111 27.3246 32.8011C27.4282 32.8911 27.5492 32.9588 27.68 33C27.7862 33.0137 27.8938 33.0137 28 33C28.2096 33.0005 28.4142 32.9352 28.5846 32.8132C28.7551 32.6911 28.8829 32.5186 28.95 32.32L30.95 26.32C30.9924 26.1953 31.0097 26.0634 31.0009 25.9319C30.9921 25.8005 30.9575 25.6721 30.8989 25.5541C30.8404 25.4361 30.7591 25.3308 30.6598 25.2443C30.5604 25.1578 30.4449 25.0918 30.32 25.05V25.05Z" fill="white"/>
</svg>
