<svg 
className="sidebar--svg" width="88" height="56" viewBox="0 0 88 56" fill="none" xmlns="http://www.w3.org/2000/svg">
<path d="M43.5 47.3C32.6 47.3 22.7 45.6 17.1 42.8C13.7 41 12 39 12 36.7C12 35 13.1 32.4 18.3 30.2C18.7 30 19.1 30 19.5 30.2C20.5 30.6 21.6 31 22.8 31.4C23.4 31.6 23.9 32.2 23.9 32.8V36C23.9 36.6 24.4 37.1 25 37.1C25.6 37.1 26.1 36.6 26.1 36V34C26.1 33.6 26.3 33.1 26.6 32.8C26.9 32.5 27.4 32.4 27.8 32.5C32.4 33.4 37.8 33.9 43.4 33.9C53 33.9 62 32.5 67.5 30.2C67.9 30 68.3 30 68.7 30.2C73.9 32.4 75 35 75 36.7C75 38.9 73.5 40.8 70.4 42.4C65 45.4 54.6 47.3 43.5 47.3ZM18.9 33.2C16.5 34.3 15 35.6 15 36.7C15 37.7 16.3 38.9 18.4 40C23.6 42.6 33.2 44.2 43.5 44.2C54.1 44.2 63.9 42.5 69 39.7C70.9 38.7 72 37.6 72 36.6C72 35.5 70.6 34.2 68.1 33.1C62.3 35.4 53.1 36.8 43.5 36.8C38.4 36.8 33.5 36.4 29.1 35.7V36C29.1 38.3 27.3 40.1 25 40.1C22.7 40.1 20.9 38.2 20.9 36V34C20.2 33.7 19.5 33.5 18.9 33.2ZM22.4 34.3C22.3 34.3 22.1 34.3 22 34.2C20.7 33.8 19.4 33.4 18.3 32.9C17.1 32.4 16 31.8 15.1 31.2C13 29.8 12 28.2 12 26.4C12 24 13.9 21.9 17.7 20.1C18.1 19.9 18.6 19.9 18.9 20.1C20 20.6 21.3 21.1 22.7 21.5C23.3 21.7 23.8 22.3 23.8 22.9V32.7C23.8 33.2 23.6 33.6 23.2 33.9C23 34.2 22.7 34.3 22.4 34.3ZM18.4 23.2C16.3 24.3 15 25.5 15 26.5C15 27.2 15.6 28 16.8 28.8C17.5 29.3 18.4 29.8 19.4 30.2C19.8 30.4 20.3 30.6 20.8 30.8V24.2C20 23.8 19.2 23.5 18.4 23.2ZM43.5 37C37.7 37 32.1 36.5 27.3 35.6C26.6 35.5 26.1 34.8 26.1 34.1V24.3C26.1 23.9 26.3 23.4 26.6 23.1C26.9 22.8 27.4 22.7 27.8 22.8C32.5 23.7 37.9 24.1 43.4 24.1C47 24.1 50.5 23.9 53.9 23.5C54.3 23.4 54.8 23.6 55.1 23.9C55.4 24.2 55.6 24.6 55.6 25V27.6C55.6 28.7 56.5 29.6 57.6 29.6C58.6 29.6 59.5 28.8 59.6 27.7V27.6V23.9C59.6 23.2 60.1 22.6 60.8 22.4C63.7 21.8 66.2 21 68.1 20.1C68.5 19.9 69 19.9 69.4 20.1C73.2 21.8 75.1 24 75.1 26.4C75.1 28.1 74.2 29.6 72.3 31C71.4 31.7 70.2 32.3 68.8 32.9C63 35.5 53.6 37 43.5 37ZM29.1 32.8C33.5 33.5 38.4 33.9 43.5 33.9C53.1 33.9 62.1 32.5 67.6 30.2C68.8 29.7 69.7 29.2 70.5 28.6C71.2 28.1 72.1 27.2 72.1 26.4C72.1 25.4 70.9 24.2 68.7 23.1C67 23.8 65 24.5 62.6 25V27.5C62.6 27.6 62.6 27.7 62.6 27.8C62.4 30.4 60.3 32.4 57.7 32.4C55 32.4 52.7 30.2 52.7 27.4V26.5C49.7 26.8 46.7 26.9 43.5 26.9C38.4 26.9 33.5 26.5 29.1 25.8V32.8ZM25 40.2C22.7 40.2 20.9 38.3 20.9 36.1V24.1C19.8 23.7 18.7 23.3 17.8 22.9C13 20.7 12 18.3 12 16.6C12 10.4 25.2 6.9 38.3 6.2C38.7 6.2 39.1 6.29999 39.4 6.59999C39.7 6.89999 39.9 7.3 39.9 7.7C39.9 9.7 41.6 11.3 43.6 11.3C45.6 11.3 47.2 9.7 47.3 7.7C47.3 7.3 47.5 6.89999 47.8 6.59999C48.1 6.29999 48.5 6.2 48.9 6.2C62 6.9 75.2 10.4 75.2 16.6C75.2 18.3 74.2 20.7 69.5 22.9C67.7 23.7 65.4 24.5 62.8 25.1V27.6C62.8 30.3 60.6 32.6 57.8 32.6C55 32.6 52.8 30.4 52.8 27.6V26.7C49.8 27 46.8 27.1 43.6 27.1C38.5 27.1 33.6 26.7 29.2 26V36C29.1 38.3 27.3 40.2 25 40.2ZM37.1 9.29999C22.7 10.3 15 14.1 15 16.6C15 17.7 16.5 19 19 20.2C20.1 20.7 21.4 21.2 22.8 21.6C23.4 21.8 23.9 22.4 23.9 23V36C23.9 36.6 24.4 37.1 25 37.1C25.6 37.1 26.1 36.6 26.1 36V24.3C26.1 23.9 26.3 23.4 26.6 23.1C26.9 22.8 27.4 22.7 27.8 22.8C32.5 23.7 37.9 24.1 43.4 24.1C47 24.1 50.5 23.9 53.9 23.5C54.3 23.4 54.8 23.6 55.1 23.9C55.4 24.2 55.6 24.6 55.6 25V27.6C55.6 28.7 56.5 29.6 57.6 29.6C58.7 29.6 59.6 28.7 59.6 27.6V23.9C59.6 23.2 60.1 22.6 60.8 22.4C63.7 21.8 66.2 21 68.1 20.1C70.6 19 72.1 17.6 72.1 16.5C72.1 14 64.4 10.2 50.1 9.2C49.3 12.1 46.7 14.2 43.6 14.2C40.5 14.2 37.8 12.2 37.1 9.29999ZM43.5 14.3C39.9 14.3 36.9 11.4 36.8 7.89999C36.8 7.79999 36.8 7.69999 36.8 7.59999C36.8 3.89999 39.8 0.899994 43.5 0.899994C47.2 0.899994 50.2 3.89999 50.2 7.59999C50.2 7.69999 50.2 7.79999 50.2 7.89999C50.1 11.4 47.1 14.3 43.5 14.3ZM39.8 7.59999V7.7C39.8 9.7 41.5 11.3 43.5 11.3C45.5 11.3 47.1 9.7 47.2 7.7V7.59999C47.2 5.59999 45.5 3.89999 43.5 3.89999C41.5 3.89999 39.9 5.59999 39.8 7.59999ZM47.2 7.59999H48.7H47.2ZM44 55.2C22.7 55.2 0.0999756 49.9 0.0999756 40.2C0.0999756 35.5 5.59998 31.4 15.6 28.6C16 28.5 16.5 28.6 16.9 28.8C17.6 29.3 18.5 29.8 19.5 30.2C20.1 30.4 20.4 31 20.4 31.6C20.4 32.2 20 32.7 19.5 33C16.7 34.2 15 35.6 15 36.8C15 37.8 16.3 39 18.4 40.1C23.6 42.7 33.2 44.3 43.5 44.3C54.1 44.3 63.9 42.6 69 39.8C70.9 38.8 72 37.7 72 36.7C72 35.5 70.3 34.1 67.5 32.9C66.9 32.7 66.6 32.1 66.6 31.5C66.6 30.9 67 30.4 67.5 30.1C68.7 29.6 69.6 29.1 70.4 28.5C70.8 28.2 71.2 28.1 71.7 28.3C82.1 31.1 87.9 35.3 87.9 40.1C87.9 49.9 65.3 55.2 44 55.2ZM15.4 31.8C7.79997 34.1 3.09998 37.3 3.09998 40.2C3.09998 45.9 19.9 52.2 44 52.2C68.1 52.2 84.9 45.9 84.9 40.2C84.9 37.1 79.8 33.8 71.6 31.5C71.5 31.5 71.5 31.6 71.4 31.6C74.3 33.4 75 35.3 75 36.7C75 38.9 73.5 40.8 70.4 42.4C64.9 45.4 54.6 47.2 43.5 47.2C32.6 47.2 22.7 45.5 17.1 42.7C13.7 41 12 39 12 36.7C12 35.4 12.7 33.6 15.4 31.8Z" fill="black"/>
</svg>
