<svg className="sidebar--svg" width="79" height="77" viewBox="0 0 79 77" fill="none" xmlns="http://www.w3.org/2000/svg">
<path d="M72.1 24C71 24 70 23.7 69.1 23.1C62.1 18.8 51.1 13.6 38.4 13.6C25.9 13.6 15.5 18.6 9 22.8C7.6 23.7 6 23.9 4.5 23.6C2.9 23.2 1.6 22.2 0.800003 20.8C-0.699997 18.3 3.09944e-06 15.1 2.3 13.3C8.6 8.3 21.7 0 38.5 0C55.3 0 69.1 8.4 75.8 13.4C78.2 15.2 78.8 18.4 77.4 21L77.3 21.1C76.5 22.5 75.2 23.5 73.7 23.8C73.1 23.9 72.6 24 72.1 24ZM38.4 10.6C51.8 10.6 63.4 16 70.7 20.5C71.3 20.9 72.1 21 72.8 20.8C73.5 20.6 74.2 20.1 74.6 19.5L74.7 19.4C75.4 18.2 75.1 16.6 74 15.7C68.7 11.9 54.9 3 38.4 3C21.9 3 8.9 11.9 4.1 15.7C3 16.6 2.7 18.1 3.4 19.4C3.8 20.1 4.4 20.6 5.2 20.7C6 20.9 6.7 20.8 7.4 20.3C14.2 15.9 25.2 10.6 38.4 10.6ZM39 76.8C37.3 76.8 35.7 75.9 34.7 74.3L5 23.9C4.6 23.2 4.8 22.4 5.4 21.9C11.2 17.6 23.3 10.5 38.4 10.5C53.6 10.5 66.3 17.7 72.5 22C73.1 22.4 73.3 23.3 72.9 24L43.3 74.3C42.4 75.9 40.8 76.8 39 76.8ZM8.3 23.5L37.4 72.8C37.8 73.4 38.4 73.8 39.1 73.8C39.8 73.8 40.4 73.4 40.8 72.8L69.8 23.7C63.6 19.6 52.1 13.5 38.6 13.5C25.1 13.5 14.2 19.4 8.3 23.5ZM26.7 38.9C21.4 38.9 17.1 34.6 17.1 29.3C17.1 24 21.4 19.7 26.7 19.7C32 19.7 36.3 24 36.3 29.3C36.3 34.6 32 38.9 26.7 38.9ZM26.7 22.7C23.1 22.7 20.1 25.6 20.1 29.3C20.1 32.9 23 35.9 26.7 35.9C30.4 35.9 33.3 33 33.3 29.3C33.3 25.7 30.3 22.7 26.7 22.7ZM51.2 41.5C48.3 41.5 46 39.2 46 36.3C46 33.4 48.3 31.1 51.2 31.1C54.1 31.1 56.4 33.4 56.4 36.3C56.4 39.2 54.1 41.5 51.2 41.5ZM51.2 34.1C50 34.1 49 35.1 49 36.3C49 37.5 50 38.5 51.2 38.5C52.4 38.5 53.4 37.5 53.4 36.3C53.4 35.1 52.4 34.1 51.2 34.1ZM38.5 59.5C35.6 59.5 33.3 57.2 33.3 54.3C33.3 51.4 35.6 49.1 38.5 49.1C41.4 49.1 43.7 51.4 43.7 54.3C43.7 57.2 41.4 59.5 38.5 59.5ZM38.5 52.1C37.3 52.1 36.3 53.1 36.3 54.3C36.3 55.5 37.3 56.5 38.5 56.5C39.7 56.5 40.7 55.5 40.7 54.3C40.7 53.1 39.7 52.1 38.5 52.1Z" fill="black"/>
</svg>
