<svg className="sidebar--svg" width="150" height="120" viewBox="0 0 150 120" fill="none" xmlns="http://www.w3.org/2000/svg">
<path d="M111.827 119.905H35.8269V105.462C23.9519 104.757 16.5016 100.855 10.5142 93.8389C-3.40801 77.5417 0.44186 50.4335 0.62236 49.284L0.84561 46.2796H144.312L144.906 49.1106C145.143 50.2316 151.019 76.72 137.664 93.1692C131.592 100.646 121.327 104.776 111.827 105.474V119.905ZM42.9519 112.78H104.702V98.5296H107.25C118.147 98.5296 126.34 95.2093 131.611 88.7327C140.543 77.7531 139.291 60.2114 138.384 53.4046H7.07997C6.49335 60.4655 6.09435 78.3445 15.4376 89.2671C20.6768 95.3898 28.3956 98.5296 38.3753 98.5296H42.9519V112.78Z" fill="black"/>
<path d="M146.437 22.5297H70.4376C68.4711 22.5297 66.8751 20.9361 66.8751 18.9672C66.8751 17.0007 68.4711 15.4047 70.4376 15.4047H146.437C148.404 15.4047 150 17.0007 150 18.9672C150 20.9361 148.404 22.5297 146.437 22.5297Z" fill="black"/>
<path d="M47.3028 39.4278C31.6326 39.4278 11.7515 30.1677 11.7515 19.7604C11.7515 9.35558 31.6326 0.0954742 47.3028 0.0954742C63.7853 0.0954742 72.4089 9.98733 72.4089 19.7604C72.4089 29.5359 63.7853 39.4278 47.3028 39.4278ZM47.3028 7.22046C32.6182 7.22046 18.8765 15.8464 18.8765 19.7604C18.8765 23.6816 32.6182 32.3028 47.3028 32.3028C60.4935 32.3028 65.2839 24.8026 65.2839 19.7604C65.2839 14.7207 60.4935 7.22046 47.3028 7.22046Z" fill="black"/>
<path d="M103.258 85.9373C101.291 85.9373 99.6952 84.3413 99.6952 82.3748C99.6952 80.406 101.291 78.8123 103.258 78.8123C110.057 78.8123 115.019 77.1427 118.011 73.8486C119.842 71.8346 120.657 69.4976 121.018 67.6546H84.6876C82.7211 67.6546 81.1251 66.061 81.1251 64.0921C81.1251 62.1256 82.7211 60.5296 84.6876 60.5296H128.06L128.369 63.7525C128.399 64.0969 129.105 72.236 123.284 78.639C118.885 83.484 112.147 85.9373 103.258 85.9373Z" fill="black"/>
</svg>