<svg className="sidebar--svg" width="71" height="66" viewBox="0 0 71 66" fill="none" xmlns="http://www.w3.org/2000/svg">
<path d="M69.3 39.7V34.3C69.3 33.5 68.6 32.8 67.8 32.8H2.3C1.5 32.8 0.800003 33.5 0.800003 34.3V39.7C0.800003 49.9 6.6 58.3 15.4 62.5H2.3C1.5 62.5 0.800003 63.2 0.800003 64C0.800003 64.8 1.5 65.5 2.3 65.5H67.8C68.6 65.5 69.3 64.8 69.3 64C69.3 63.2 68.6 62.5 67.8 62.5H54.6C63.5 58.3 69.3 49.9 69.3 39.7ZM41.6 62.3H28.4C14.1 62.3 3.8 52.8 3.8 39.7V35.8H66.3V39.7C66.3 52.8 55.9 62.3 41.6 62.3ZM70.3 1.10001C70 0.800012 69.6 0.700012 69.2 0.700012L4.7 1.70001C3.9 1.70001 3.2 2.40001 3.2 3.20001V7.30001C3.2 8.10001 3.9 8.80001 4.7 8.80001L10.2 8.90001C10.1 11.1 10.6 13.7 12.4 16.3C15.4 20.5 13.7 24.4 12.8 25.8H2.3C1.5 25.8 0.800003 26.5 0.800003 27.3V34.5C0.800003 35.3 1.5 36 2.3 36H67.8C68.6 36 69.3 35.3 69.3 34.5V27.3C69.3 26.5 68.6 25.8 67.8 25.8H36.2C37.4 23 37.8 18.8 34.9 14.6C33.6 12.7 33.2 10.9 33.2 9.30001L69.2 9.90001C69.6 9.90001 70 9.70001 70.3 9.50001C70.6 9.20001 70.7 8.80001 70.7 8.40001V2.30001C70.7 1.80001 70.5 1.40001 70.3 1.10001ZM10.8 5.80001L6.3 5.70001V4.60001L11.3 4.50001C11.1 5.00001 11 5.40001 10.8 5.80001ZM24.8 4.40001C24.9 4.40001 24.9 4.40001 24.8 4.40001L31.4 4.20001C31.1 4.80001 30.9 5.40001 30.7 6.10001L23.9 6.00001C24.3 5.10001 24.8 4.50001 24.8 4.40001ZM14.8 4.50001L21.4 4.40001C21.2 4.90001 21 5.40001 20.8 6.00001L14 5.90001C14.3 5.20001 14.7 4.70001 14.8 4.50001ZM14.9 14.5C13.5 12.5 13.1 10.5 13.2 8.90001L20.2 9.00001C20.1 11.2 20.7 13.7 22.4 16.2C25.4 20.4 23.7 24.3 22.8 25.7H16.2C17.4 22.9 17.8 18.7 14.9 14.5ZM66.3 32.9H3.8V28.7H66.3V32.9ZM32.9 25.7H26.3C27.5 22.9 27.9 18.7 25 14.5C23.6 12.5 23.2 10.6 23.3 9.10001L30.3 9.20001C30.2 11.4 30.8 13.8 32.5 16.3C35.4 20.5 33.7 24.3 32.9 25.7ZM67.7 6.70001L33.9 6.20001C34.3 5.20001 34.8 4.50001 34.9 4.40001C35 4.30001 35 4.20001 35.1 4.10001L67.8 3.60001V6.70001H67.7ZM23.2 56.8C16.7 56.8 14 51.9 13.6 49.3C13.5 48.5 14 47.7 14.8 47.6C15.6 47.5 16.4 48 16.5 48.8C16.6 49.4 17.7 54.2 23.7 53.8C24.5 53.8 25.2 54.4 25.3 55.2C25.3 56 24.7 56.7 23.9 56.8C23.7 56.8 23.4 56.8 23.2 56.8Z" fill="black"/>
</svg>
